ffmpeg version 5.0.1-static https://johnvansickle.com/ffmpeg/  Copyright (c) 2000-2022 the FFmpeg developers
  built with gcc 8 (Debian 8.3.0-6)
  configuration: --enable-gpl --enable-version3 --enable-static --disable-debug --disable-ffplay --disable-indev=sndio --disable-outdev=sndio --cc=gcc --enable-fontconfig --enable-frei0r --enable-gnutls --enable-gmp --enable-libgme --enable-gray --enable-libfribidi --enable-libass --enable-libfreetype --enable-libmp3lame --enable-libopencore-amrnb --enable-libopencore-amrwb --enable-libopenjpeg --enable-librubberband --enable-libsoxr --enable-libspeex --enable-libsrt --enable-libvorbis --enable-libopus --enable-libtheora --enable-libvidstab --enable-libvo-amrwbenc --enable-libvpx --enable-libwebp --enable-libx264 --enable-libx265 --enable-libxml2 --enable-libxvid --enable-libzimg
  libavutil      57. 17.100 / 57. 17.100
  libavcodec     59. 18.100 / 59. 18.100
  libavformat    59. 16.100 / 59. 16.100
  libavdevice    59.  4.100 / 59.  4.100
  libavfilter     8. 24.100 /  8. 24.100
  libswscale      6.  4.100 /  6.  4.100
  libswresample   4.  3.100 /  4.  3.100
  libpostproc    56.  3.100 / 56.  3.100
Input #0, image2, from '2DEvolve/skeleplt-%03d.png':
  Duration: 00:00:04.00, start: 0.000000, bitrate: N/A
  Stream #0:0: Video: png, rgba(pc), 640x480 [SAR 3937:3937 DAR 4:3], 25 fps, 25 tbr, 25 tbn
Stream mapping:
  Stream #0:0 -> #0:0 (png (native) -> h264 (libx264))
Press [q] to stop, [?] for help
[libx264 @ 0xba95780] using SAR=1/1
[libx264 @ 0xba95780] using cpu capabilities: MMX2 SSE2Fast SSSE3 SSE4.2 AVX FMA3 BMI2 AVX2
[libx264 @ 0xba95780] profile High, level 3.1, 4:2:0, 8-bit
[libx264 @ 0xba95780] 264 - core 164 r3094 bfc87b7 - H.264/MPEG-4 AVC codec - Copyleft 2003-2022 - http://www.videolan.org/x264.html - options: cabac=1 ref=3 deblock=1:0:0 analyse=0x3:0x113 me=hex subme=7 psy=1 psy_rd=1.00:0.00 mixed_ref=1 me_range=16 chroma_me=1 trellis=1 8x8dct=1 cqm=0 deadzone=21,11 fast_pskip=1 chroma_qp_offset=-2 threads=15 lookahead_threads=2 sliced_threads=0 nr=0 decimate=1 interlaced=0 bluray_compat=0 constrained_intra=0 bframes=3 b_pyramid=2 b_adapt=1 b_bias=0 direct=1 weightb=1 open_gop=0 weightp=2 keyint=250 keyint_min=25 scenecut=40 intra_refresh=0 rc_lookahead=40 rc=crf mbtree=1 crf=23.0 qcomp=0.60 qpmin=0 qpmax=69 qpstep=4 ip_ratio=1.40 aq=1:1.00
Output #0, mp4, to '2DEvolve.mp4':
  Metadata:
    encoder         : Lavf59.16.100
  Stream #0:0: Video: h264 (avc1 / 0x31637661), yuv420p(tv, progressive), 640x480 [SAR 1:1 DAR 4:3], q=2-31, 72 fps, 18432 tbn
    Metadata:
      encoder         : Lavc59.18.100 libx264
    Side data:
      cpb: bitrate max/min/avg: 0/0/0 buffer size: 0 vbv_delay: N/A
frame=    3 fps=0.0 q=0.0 size=       0kB time=00:00:00.00 bitrate=N/A dup=2 drop=0 speed=   0x    frame=  102 fps=0.0 q=-1.0 Lsize=      71kB time=00:00:01.37 bitrate= 423.1kbits/s dup=2 drop=0 speed=4.99x    
video:69kB audio:0kB subtitle:0kB other streams:0kB global headers:0kB muxing overhead: 2.845103%
[libx264 @ 0xba95780] frame I:1     Avg QP:21.70  size:  6650
[libx264 @ 0xba95780] frame P:38    Avg QP:26.01  size:   911
[libx264 @ 0xba95780] frame B:63    Avg QP:30.65  size:   457
[libx264 @ 0xba95780] consecutive B-frames:  2.9% 33.3% 32.4% 31.4%
[libx264 @ 0xba95780] mb I  I16..4: 47.8% 38.6% 13.7%
[libx264 @ 0xba95780] mb P  I16..4:  0.4%  1.4%  0.2%  P16..4:  5.5%  2.7%  0.9%  0.0%  0.0%    skip:88.8%
[libx264 @ 0xba95780] mb B  I16..4:  0.1%  0.2%  0.0%  B16..8: 10.4%  2.5%  0.4%  direct: 0.1%  skip:86.3%  L0:49.7% L1:47.1% BI: 3.2%
[libx264 @ 0xba95780] 8x8 transform intra:53.8% inter:16.1%
[libx264 @ 0xba95780] coded y,uvDC,uvAC intra: 8.2% 5.5% 4.6% inter: 1.0% 0.3% 0.2%
[libx264 @ 0xba95780] i16 v,h,dc,p: 64% 29%  7%  0%
[libx264 @ 0xba95780] i8 v,h,dc,ddl,ddr,vr,hd,vl,hu: 23% 10% 65%  1%  0%  0%  0%  0%  0%
[libx264 @ 0xba95780] i4 v,h,dc,ddl,ddr,vr,hd,vl,hu: 29% 23% 31%  3%  2%  3%  3%  3%  2%
[libx264 @ 0xba95780] i8c dc,h,v,p: 90%  4%  6%  0%
[libx264 @ 0xba95780] Weighted P-Frames: Y:0.0% UV:0.0%
[libx264 @ 0xba95780] ref P L0: 63.2%  1.8% 22.9% 12.0%
[libx264 @ 0xba95780] ref B L0: 66.4% 29.1%  4.4%
[libx264 @ 0xba95780] ref B L1: 96.5%  3.5%
[libx264 @ 0xba95780] kb/s:395.45
